# xmcd CD database file
#
# Track frame offsets:
#	150
#	11133
#	19510
#	36050
#	48517
#	59512
#	70522
#	76036
#	90875
#	101040
#	110353
#	117400
#	131491
#	147626
#	159673
#	168109
#	177814
#	189109
#	200190
#	211320
#	222063
#	233497
#
# Disc length: 3174 seconds
#
# Revision: 1
# Processed by: cddbd v1.5.2PL0 Copyright (c) Steve Scherf et al.
# Submitted via: CDex 1.70beta2
#
DISCID=210c6416
DTITLE=GoC-2 - Gentlemen of Country - 2
DYEAR=1900
DGENRE=Country
TTITLE0=Silver Wings - Merle Haggard
TTITLE1=Abilene (Waylon Jennings - Abilene (Waylon Jennings)
TTITLE2=In A Different Light (Doug Stone - In A Different Light (Doug Stone)
TTITLE3=It's Four In The Morning - Faron Young
TTITLE4=Misery Loves Company (Porter Wagoner - Misery Loves Company (Porter Wagoner)
TTITLE5=Momma Tried (Merle Haggard - Momma Tried (Merle Haggard)
TTITLE6=The Ghost  (Willie Nelson - The Ghost  (Willie Nelson)
TTITLE7=Woman Sensuous Woman (Don Gibson - Woman Sensuous Woman (Don Gibson)
TTITLE8=Gone - Willie Nelson
TTITLE9=Today I Started Loving You Again (Merle Haggard - Today I Started Loving You Again (Merle Haggard)
TTITLE10=Going  Steady - Faron Young
TTITLE11=Made For Lovin' You - Doug Stone
TTITLE12=Strong Heart (T.G. Sheppard - Strong Heart (T.G. Sheppard)
TTITLE13=Don't Think Twice (Waylon Jennings - Don't Think Twice (Waylon Jennings)
TTITLE14=Slow Down Old World (Willie Nelson - Slow Down Old World (Willie Nelson)
TTITLE15=Who Cares (Don Gibson - Who Cares (Don Gibson)
TTITLE16=Eat, Drink, And Be Merry - Porter Wagoner
TTITLE17=Go Away (Willie Nelson - Go Away (Willie Nelson)
TTITLE18=There Goes My Everything (Jack Greene - There Goes My Everything (Jack Greene)
TTITLE19=Wings Of A Dove - Ferlin Husky
TTITLE20=Suffering In Silence (Willie Nelson - Suffering In Silence (Willie Nelson)
TTITLE21=Swinging Doors (Merle Haggard - Swinging Doors (Merle Haggard)
EXTD=
EXTT0=
EXTT1=
EXTT2=
EXTT3=
EXTT4=
EXTT5=
EXTT6=
EXTT7=
EXTT8=
EXTT9=
EXTT10=
EXTT11=
EXTT12=
EXTT13=
EXTT14=
EXTT15=
EXTT16=
EXTT17=
EXTT18=
EXTT19=
EXTT20=
EXTT21=
PLAYORDER=
